<svg xmlns="http://www.w3.org/2000/svg" viewBox="0 0 268 236.88"><defs><style>.cls-1{fill:#f26951;}.cls-2{fill:#1b75bc;}</style></defs><title>Asset 9</title><g id="Layer_2" data-name="Layer 2"><g id="Layer_1-2" data-name="Layer 1"><path class="cls-1" d="M95.37,188.71c-33.71-15.32-60.09,14.4-80.74-2C-12.61,165.07,1.43,88.05,30.18,77.39c8.91-3.3,15.34,1.21,23.06-4.51C66.57,63,56.26,43,66.78,24.74S105.29-4.34,130,1.67C159.14,8.78,174.06,37,176.6,56.33c1.18,9-1.12,9.84,1,15,9.19,22.49,53,8.14,75.72,31.09,17.9,18.09,19.65,56.24,4,76.22-19,24.23-51.95,7-77.23,33.6-21.39,22.49-14.77,11.86-25.57,13.32C139.3,227.66,135.73,207.06,95.37,188.71Z"/><path class="cls-2" d="M102.89,228.83c-25.8-12.09-25.55-28.13-60.18-67.19-26.53-29.95-36-31-39.11-47.14C-.69,92.25,11.31,62.82,32.68,52.32c28.12-13.81,47.44,17.42,89.26,8,31.23-7,34.61-27.6,63.19-28.08,19.56-.33,46.78,8.84,53.15,27.08,8.8,25.17-31.3,41.41-33.1,87.25-1.17,30,15.39,38.11,7,57.17-10.65,24.28-47,32.72-69.2,33.09A88.53,88.53,0,0,1,102.89,228.83Z"/><ellipse class="cls-2" cx="35.32" cy="26.22" rx="10.19" ry="10.49"/><ellipse class="cls-2" cx="57.5" cy="209.89" rx="8.99" ry="9.59"/></g></g></svg>